<?xml version="1.0" encoding="UTF-8" standalone="no"?>
<svg
   width="512"
   height="512"
   viewBox="0 0 512 512"
   fill="none"
   version="1.1"
   id="svg3"
   sodipodi:docname="Resonate.svg"
   inkscape:version="1.4.3 (0d15f75042, 2025-12-25)"
   inkscape:export-filename="Resonate-padded-192.png"
   inkscape:export-xdpi="36"
   inkscape:export-ydpi="36"
   xmlns:inkscape="http://www.inkscape.org/namespaces/inkscape"
   xmlns:sodipodi="http://sodipodi.sourceforge.net/DTD/sodipodi-0.dtd"
   xmlns="http://www.w3.org/2000/svg"
   xmlns:svg="http://www.w3.org/2000/svg">
  <sodipodi:namedview
     id="namedview3"
     pagecolor="#ffffff"
     bordercolor="#000000"
     borderopacity="0.25"
     inkscape:showpageshadow="2"
     inkscape:pageopacity="0.0"
     inkscape:pagecheckerboard="0"
     inkscape:deskcolor="#d1d1d1"
     inkscape:zoom="0.45254834"
     inkscape:cx="207.71262"
     inkscape:cy="431.99805"
     inkscape:window-width="1824"
     inkscape:window-height="1034"
     inkscape:window-x="0"
     inkscape:window-y="0"
     inkscape:window-maximized="1"
     inkscape:current-layer="svg3" />
  <rect
     width="512"
     height="512"
     fill="#000000"
     id="rect1"
     x="0"
     y="0"
     style="display:inline;fill:#191b1e;fill-opacity:1" />
  <g
     clip-path="url(#clip0_814_101)"
     id="g3">
    <path
       d="M317.523 304.826C255.727 304.826 101 284.375 101 284.375V243.479C101 243.479 255.727 263.93 317.523 263.93V304.826Z"
       fill="white"
       fill-opacity="0.2"
       id="path1"
       style="fill:#59a2d7;fill-opacity:0.2" />
    <path
       d="M317.523 189.347C255.727 189.347 101 168.896 101 168.896V128C101 128 255.727 148.451 317.523 148.451V189.347Z"
       fill="white"
       fill-opacity="0.2"
       id="path2"
       style="fill:#59a2d7;fill-opacity:0.2" />
    <path
       d="M358.174 293.437C380.685 279.711 395.71 254.931 395.71 226.639C395.71 183.457 360.704 148.451 317.523 148.451C255.727 148.451 101 168.896 101 168.896V209.793C101 209.793 255.727 189.342 317.523 189.342C338.12 189.342 354.814 206.036 354.814 226.633C354.814 247.23 338.12 263.925 317.523 263.925C255.727 263.925 101 284.375 101 284.375V325.272C101 325.272 255.727 304.821 317.523 304.821L363.234 383.995H410.459L358.174 293.432V293.437Z"
       fill="white"
       id="path3"
       style="fill:#59a2d7;fill-opacity:1" />
  </g>
  <defs
     id="defs3">
    <clipPath
       id="clip0_814_101">
      <rect
         width="309.459"
         height="256"
         fill="white"
         transform="translate(101 128)"
         id="rect3" />
    </clipPath>
  </defs>
</svg>
